{
	"asset":{
		"generator":"Khronos glTF Blender I/O v4.2.60",
		"version":"2.0"
	},
	"extensionsUsed":[
		"KHR_materials_transmission",
		"KHR_materials_specular",
		"KHR_materials_anisotropy",
		"KHR_materials_sheen",
		"KHR_texture_transform"
	],
	"extensionsRequired":[
		"KHR_texture_transform"
	],
	"scene":0,
	"scenes":[
		{
			"extras":{
				"NWBusyDrawing":"",
				"NWLazySource":"Principled BSDF",
				"NWLazyTarget":"Principled BSDF"
			},
			"name":"Scene",
			"nodes":[
				0,
				1,
				2,
				3,
				4,
				5,
				6,
				7,
				8,
				9,
				10,
				11,
				12,
				13,
				14
			]
		}
	],
	"nodes":[
		{
			"mesh":0,
			"name":"Cube"
		},
		{
			"camera":0,
			"name":"Camera",
			"rotation":[
				-0.016634933650493622,
				0.7069110870361328,
				0.01663494110107422,
				0.7069110870361328
			],
			"translation":[
				2.334693670272827,
				0.865263819694519,
				0
			]
		},
		{
			"mesh":1,
			"name":"Cube.004"
		},
		{
			"mesh":2,
			"name":"Cube.003"
		},
		{
			"mesh":3,
			"name":"Cube.005"
		},
		{
			"mesh":4,
			"name":"Cube.006"
		},
		{
			"mesh":5,
			"name":"Cylinder.001"
		},
		{
			"mesh":6,
			"name":"Cylinder"
		},
		{
			"mesh":7,
			"name":"Cube.001"
		},
		{
			"mesh":8,
			"name":"Cube.002"
		},
		{
			"mesh":9,
			"name":"Cube.007"
		},
		{
			"mesh":10,
			"name":"Cube.008"
		},
		{
			"mesh":11,
			"name":"Cube.009"
		},
		{
			"mesh":12,
			"name":"skull_ld."
		},
		{
			"mesh":13,
			"name":"Sphere"
		}
	],
	"cameras":[
		{
			"name":"Camera.001",
			"perspective":{
				"aspectRatio":1.7777777777777777,
				"yfov":0.8626525991091963,
				"zfar":1000,
				"znear":0.10000000149011612
			},
			"type":"perspective"
		}
	],
	"materials":[
		{
			"doubleSided":true,
			"name":"Wood.001",
			"normalTexture":{
				"index":0
			},
			"pbrMetallicRoughness":{
				"baseColorTexture":{
					"index":1
				},
				"metallicFactor":0,
				"metallicRoughnessTexture":{
					"index":2
				}
			}
		},
		{
			"doubleSided":true,
			"name":"paper.001",
			"pbrMetallicRoughness":{
				"baseColorFactor":[
					0.6368026733398438,
					0.529021143913269,
					0.34159183502197266,
					1
				],
				"metallicFactor":0,
				"roughnessFactor":0.5
			}
		},
		{
			"doubleSided":true,
			"name":"paper.004",
			"pbrMetallicRoughness":{
				"baseColorFactor":[
					0.6368026733398438,
					0.529021143913269,
					0.34159183502197266,
					1
				],
				"metallicFactor":0,
				"roughnessFactor":0.5
			}
		},
		{
			"doubleSided":true,
			"extensions":{
				"KHR_materials_transmission":{
					"transmissionFactor":0.1490909308195114
				},
				"KHR_materials_specular":{
					"specularColorFactor":[
						1.3636363744735718,
						1.3636363744735718,
						1.3636363744735718
					]
				},
				"KHR_materials_sheen":{
					"sheenColorFactor":[
						1.0,
						1.0,
						1.0
					],
					"sheenRoughnessFactor":0.892727255821228
				},
				"KHR_materials_anisotropy":{
					"anisotropyStrength":0.18909090757369995,
					"anisotropyRotation":3.061624916852575
				}
			},
			"name":"Wax.001",
			"pbrMetallicRoughness":{
				"baseColorFactor":[
					0.8008192181587219,
					0.4107406735420227,
					0,
					1
				],
				"metallicFactor":0,
				"roughnessFactor":0.6090909242630005
			}
		},
		{
			"doubleSided":true,
			"name":"Stone-wall.001",
			"normalTexture":{
				"extensions":{
					"KHR_texture_transform":{
						"offset":[
							2.499999761581421,
							-11.19999885559082
						],
						"scale":[
							12.199996948242188,
							12.19999885559082
						]
					}
				},
				"index":3,
				"scale":2.299999952316284
			},
			"pbrMetallicRoughness":{
				"baseColorTexture":{
					"extensions":{
						"KHR_texture_transform":{
							"offset":[
								2.499999761581421,
								-11.19999885559082
							],
							"scale":[
								12.199996948242188,
								12.19999885559082
							]
						}
					},
					"index":4
				},
				"metallicFactor":0,
				"metallicRoughnessTexture":{
					"extensions":{
						"KHR_texture_transform":{
							"offset":[
								2.499999761581421,
								-11.19999885559082
							],
							"scale":[
								12.199996948242188,
								12.19999885559082
							]
						}
					},
					"index":5
				}
			}
		},
		{
			"doubleSided":true,
			"name":"Book-1.001",
			"pbrMetallicRoughness":{
				"baseColorFactor":[
					0.3313713073730469,
					0.0006307955482043326,
					0.0207427479326725,
					1
				],
				"metallicFactor":0
			}
		},
		{
			"doubleSided":true,
			"name":"Book-3.001",
			"pbrMetallicRoughness":{
				"baseColorFactor":[
					0.11898466944694519,
					0.18350782990455627,
					0.11989431083202362,
					1
				],
				"metallicFactor":0
			}
		},
		{
			"doubleSided":true,
			"name":"Book-2.001",
			"pbrMetallicRoughness":{
				"baseColorFactor":[
					0.1802021861076355,
					0.19991010427474976,
					0.4964592456817627,
					1
				],
				"metallicFactor":0
			}
		},
		{
			"doubleSided":true,
			"name":"Book-4.001",
			"pbrMetallicRoughness":{
				"baseColorFactor":[
					0.23329409956932068,
					0.08952222764492035,
					0.10958113521337509,
					1
				],
				"metallicFactor":0
			}
		},
		{
			"doubleSided":true,
			"name":"skull.001",
			"normalTexture":{
				"index":6
			},
			"pbrMetallicRoughness":{
				"baseColorTexture":{
					"index":7
				},
				"metallicFactor":0
			}
		},
		{
			"doubleSided":true,
			"name":"Material.002",
			"pbrMetallicRoughness":{
				"baseColorFactor":[
					0,
					0,
					0,
					1
				],
				"metallicFactor":0
			}
		}
	],
	"meshes":[
		{
			"name":"Cube.001",
			"primitives":[
				{
					"attributes":{
						"POSITION":0,
						"NORMAL":1,
						"TEXCOORD_0":2,
						"TANGENT":3
					},
					"indices":4,
					"material":0
				}
			]
		},
		{
			"name":"Cube.006",
			"primitives":[
				{
					"attributes":{
						"POSITION":5,
						"NORMAL":6,
						"TEXCOORD_0":7,
						"TANGENT":8
					},
					"indices":9,
					"material":1
				}
			]
		},
		{
			"name":"Cube.008",
			"primitives":[
				{
					"attributes":{
						"POSITION":10,
						"NORMAL":11,
						"TEXCOORD_0":12,
						"TANGENT":13
					},
					"indices":14,
					"material":1
				}
			]
		},
		{
			"name":"Cube.009",
			"primitives":[
				{
					"attributes":{
						"POSITION":15,
						"NORMAL":16,
						"TEXCOORD_0":17,
						"TANGENT":18
					},
					"indices":19,
					"material":1
				}
			]
		},
		{
			"name":"Cube.010",
			"primitives":[
				{
					"attributes":{
						"POSITION":20,
						"NORMAL":21,
						"TEXCOORD_0":22,
						"TANGENT":23
					},
					"indices":24,
					"material":2
				}
			]
		},
		{
			"name":"Cylinder.003",
			"primitives":[
				{
					"attributes":{
						"POSITION":25,
						"NORMAL":26,
						"TEXCOORD_0":27,
						"TANGENT":28
					},
					"indices":29,
					"material":3
				}
			]
		},
		{
			"name":"Cylinder.006",
			"primitives":[
				{
					"attributes":{
						"POSITION":30,
						"NORMAL":31,
						"TEXCOORD_0":32
					},
					"indices":33
				}
			]
		},
		{
			"name":"Cube.002",
			"primitives":[
				{
					"attributes":{
						"POSITION":34,
						"NORMAL":35,
						"TEXCOORD_0":36,
						"TANGENT":37
					},
					"indices":4,
					"material":4
				}
			]
		},
		{
			"name":"Cube.003",
			"primitives":[
				{
					"attributes":{
						"POSITION":38,
						"NORMAL":39,
						"TEXCOORD_0":40,
						"TANGENT":41
					},
					"indices":42,
					"material":5
				}
			]
		},
		{
			"name":"Cube.004",
			"primitives":[
				{
					"attributes":{
						"POSITION":43,
						"NORMAL":44,
						"TEXCOORD_0":45,
						"TANGENT":46
					},
					"indices":47,
					"material":6
				}
			]
		},
		{
			"name":"Cube.005",
			"primitives":[
				{
					"attributes":{
						"POSITION":48,
						"NORMAL":49,
						"TEXCOORD_0":50,
						"TANGENT":51
					},
					"indices":52,
					"material":7
				}
			]
		},
		{
			"name":"Cube.007",
			"primitives":[
				{
					"attributes":{
						"POSITION":53,
						"NORMAL":54,
						"TEXCOORD_0":55,
						"TANGENT":56
					},
					"indices":57,
					"material":8
				}
			]
		},
		{
			"name":"Circle.001",
			"primitives":[
				{
					"attributes":{
						"POSITION":58,
						"NORMAL":59,
						"TEXCOORD_0":60,
						"TANGENT":61
					},
					"indices":62,
					"material":9
				}
			]
		},
		{
			"name":"Sphere.001",
			"primitives":[
				{
					"attributes":{
						"POSITION":63,
						"NORMAL":64,
						"TEXCOORD_0":65,
						"TANGENT":66
					},
					"indices":67,
					"material":10
				}
			]
		}
	],
	"textures":[
		{
			"sampler":0,
			"source":0
		},
		{
			"sampler":0,
			"source":1
		},
		{
			"sampler":0,
			"source":2
		},
		{
			"sampler":0,
			"source":3
		},
		{
			"sampler":0,
			"source":4
		},
		{
			"sampler":0,
			"source":5
		},
		{
			"sampler":0,
			"source":6
		},
		{
			"sampler":0,
			"source":7
		}
	],
	"images":[
		{
			"mimeType":"image/png",
			"name":"Wood-normal.png",
			"uri":"../../Assets/Texture/Wood-normal.png"
		},
		{
			"mimeType":"image/png",
			"name":"Wood-color.png",
			"uri":"../../Assets/Texture/Wood-color.png"
		},
		{
			"mimeType":"image/png",
			"name":"Wood-color",
			"uri":"../../Assets/Texture/Wood-roughness.png"
		},
		{
			"mimeType":"image/png",
			"name":"stone_wall_03_normal_gl_1k.png",
			"uri":"../../../../Downloads/stone_wall_03_1k/stone_wall_03_1k/stone_wall_03_normal_gl_1k.png"
		},
		{
			"mimeType":"image/png",
			"name":"stone_wall_03_color_1k.png.001",
			"uri":"../../../../Downloads/stone_wall_03_1k/stone_wall_03_1k/stone_wall_03_color_1k.png"
		},
		{
			"mimeType":"image/png",
			"name":"stone_wall_03_roughness_1k.png",
			"uri":"../../../../Downloads/stone_wall_03_1k/stone_wall_03_1k/stone_wall_03_roughness_1k.png"
		},
		{
			"mimeType":"image/png",
			"name":"Skull-normal.png",
			"uri":"../../Assets/Texture/Skull-normal.png"
		},
		{
			"mimeType":"image/png",
			"name":"Skull-color",
			"uri":"../../Assets/Texture/Skull-color.png"
		}
	],
	"accessors":[
		{
			"bufferView":0,
			"componentType":5126,
			"count":24,
			"max":[
				1,
				0.09561216831207275,
				2.720189094543457
			],
			"min":[
				-1,
				-0.09561216831207275,
				-2.720189094543457
			],
			"type":"VEC3"
		},
		{
			"bufferView":1,
			"componentType":5126,
			"count":24,
			"type":"VEC3"
		},
		{
			"bufferView":2,
			"componentType":5126,
			"count":24,
			"type":"VEC2"
		},
		{
			"bufferView":3,
			"componentType":5126,
			"count":24,
			"type":"VEC4"
		},
		{
			"bufferView":4,
			"componentType":5123,
			"count":36,
			"type":"SCALAR"
		},
		{
			"bufferView":5,
			"componentType":5126,
			"count":44,
			"max":[
				0.6464806199073792,
				0.2849735617637634,
				-0.28117257356643677
			],
			"min":[
				-0.20504450798034668,
				0.11643288284540176,
				-0.9691710472106934
			],
			"type":"VEC3"
		},
		{
			"bufferView":6,
			"componentType":5126,
			"count":44,
			"type":"VEC3"
		},
		{
			"bufferView":7,
			"componentType":5126,
			"count":44,
			"type":"VEC2"
		},
		{
			"bufferView":8,
			"componentType":5126,
			"count":44,
			"type":"VEC4"
		},
		{
			"bufferView":9,
			"componentType":5123,
			"count":66,
			"type":"SCALAR"
		},
		{
			"bufferView":10,
			"componentType":5126,
			"count":44,
			"max":[
				0.646206259727478,
				0.43181100487709045,
				-0.4306221008300781
			],
			"min":[
				-0.0474584698677063,
				0.32723498344421387,
				-1.006914734840393
			],
			"type":"VEC3"
		},
		{
			"bufferView":11,
			"componentType":5126,
			"count":44,
			"type":"VEC3"
		},
		{
			"bufferView":12,
			"componentType":5126,
			"count":44,
			"type":"VEC2"
		},
		{
			"bufferView":13,
			"componentType":5126,
			"count":44,
			"type":"VEC4"
		},
		{
			"bufferView":14,
			"componentType":5123,
			"count":66,
			"type":"SCALAR"
		},
		{
			"bufferView":15,
			"componentType":5126,
			"count":44,
			"max":[
				0.8499071598052979,
				0.3079088628292084,
				-1.3784141540527344
			],
			"min":[
				-0.3041757047176361,
				0.10033642500638962,
				-2.473569393157959
			],
			"type":"VEC3"
		},
		{
			"bufferView":16,
			"componentType":5126,
			"count":44,
			"type":"VEC3"
		},
		{
			"bufferView":17,
			"componentType":5126,
			"count":44,
			"type":"VEC2"
		},
		{
			"bufferView":18,
			"componentType":5126,
			"count":44,
			"type":"VEC4"
		},
		{
			"bufferView":19,
			"componentType":5123,
			"count":66,
			"type":"SCALAR"
		},
		{
			"bufferView":20,
			"componentType":5126,
			"count":44,
			"max":[
				0.20152932405471802,
				0.4738972783088684,
				0.11925391852855682
			],
			"min":[
				-0.5041333436965942,
				0.09950466454029083,
				-0.6032062768936157
			],
			"type":"VEC3"
		},
		{
			"bufferView":21,
			"componentType":5126,
			"count":44,
			"type":"VEC3"
		},
		{
			"bufferView":22,
			"componentType":5126,
			"count":44,
			"type":"VEC2"
		},
		{
			"bufferView":23,
			"componentType":5126,
			"count":44,
			"type":"VEC4"
		},
		{
			"bufferView":24,
			"componentType":5123,
			"count":66,
			"type":"SCALAR"
		},
		{
			"bufferView":25,
			"componentType":5126,
			"count":6856,
			"max":[
				0.28359776735305786,
				0.8108833432197571,
				0.9733638763427734
			],
			"min":[
				0.1763291358947754,
				0.5709825754165649,
				0.8663856387138367
			],
			"type":"VEC3"
		},
		{
			"bufferView":26,
			"componentType":5126,
			"count":6856,
			"type":"VEC3"
		},
		{
			"bufferView":27,
			"componentType":5126,
			"count":6856,
			"type":"VEC2"
		},
		{
			"bufferView":28,
			"componentType":5126,
			"count":6856,
			"type":"VEC4"
		},
		{
			"bufferView":29,
			"componentType":5123,
			"count":37248,
			"type":"SCALAR"
		},
		{
			"bufferView":30,
			"componentType":5126,
			"count":96,
			"max":[
				0.23496487736701965,
				0.8262172937393188,
				0.9236014485359192
			],
			"min":[
				0.22872969508171082,
				0.7862836122512817,
				0.9173662066459656
			],
			"type":"VEC3"
		},
		{
			"bufferView":31,
			"componentType":5126,
			"count":96,
			"type":"VEC3"
		},
		{
			"bufferView":32,
			"componentType":5126,
			"count":96,
			"type":"VEC2"
		},
		{
			"bufferView":33,
			"componentType":5123,
			"count":180,
			"type":"SCALAR"
		},
		{
			"bufferView":34,
			"componentType":5126,
			"count":24,
			"max":[
				-0.9923572540283203,
				3.7434282302856445,
				5.432227611541748
			],
			"min":[
				-1.8935251235961914,
				-3.7434282302856445,
				-5.432227611541748
			],
			"type":"VEC3"
		},
		{
			"bufferView":35,
			"componentType":5126,
			"count":24,
			"type":"VEC3"
		},
		{
			"bufferView":36,
			"componentType":5126,
			"count":24,
			"type":"VEC2"
		},
		{
			"bufferView":37,
			"componentType":5126,
			"count":24,
			"type":"VEC4"
		},
		{
			"bufferView":38,
			"componentType":5126,
			"count":760,
			"max":[
				0.21701177954673767,
				0.48899322748184204,
				0.1360793262720108
			],
			"min":[
				-0.5372819900512695,
				0.0828646719455719,
				-0.6322365999221802
			],
			"type":"VEC3"
		},
		{
			"bufferView":39,
			"componentType":5126,
			"count":760,
			"type":"VEC3"
		},
		{
			"bufferView":40,
			"componentType":5126,
			"count":760,
			"type":"VEC2"
		},
		{
			"bufferView":41,
			"componentType":5126,
			"count":760,
			"type":"VEC4"
		},
		{
			"bufferView":42,
			"componentType":5123,
			"count":1170,
			"type":"SCALAR"
		},
		{
			"bufferView":43,
			"componentType":5126,
			"count":736,
			"max":[
				0.6705494523048401,
				0.44675320386886597,
				-0.40978944301605225
			],
			"min":[
				-0.06923225522041321,
				0.31229281425476074,
				-1.037732720375061
			],
			"type":"VEC3"
		},
		{
			"bufferView":44,
			"componentType":5126,
			"count":736,
			"type":"VEC3"
		},
		{
			"bufferView":45,
			"componentType":5126,
			"count":736,
			"type":"VEC2"
		},
		{
			"bufferView":46,
			"componentType":5126,
			"count":736,
			"type":"VEC4"
		},
		{
			"bufferView":47,
			"componentType":5123,
			"count":1170,
			"type":"SCALAR"
		},
		{
			"bufferView":48,
			"componentType":5126,
			"count":734,
			"max":[
				0.6672532558441162,
				0.30905526876449585,
				-0.25757575035095215
			],
			"min":[
				-0.24172374606132507,
				0.09235122054815292,
				-1.0022704601287842
			],
			"type":"VEC3"
		},
		{
			"bufferView":49,
			"componentType":5126,
			"count":734,
			"type":"VEC3"
		},
		{
			"bufferView":50,
			"componentType":5126,
			"count":734,
			"type":"VEC2"
		},
		{
			"bufferView":51,
			"componentType":5126,
			"count":734,
			"type":"VEC4"
		},
		{
			"bufferView":52,
			"componentType":5123,
			"count":1170,
			"type":"SCALAR"
		},
		{
			"bufferView":53,
			"componentType":5126,
			"count":730,
			"max":[
				0.8963191509246826,
				0.3375675678253174,
				-1.342294454574585
			],
			"min":[
				-0.338583379983902,
				0.07067777216434479,
				-2.5308303833007812
			],
			"type":"VEC3"
		},
		{
			"bufferView":54,
			"componentType":5126,
			"count":730,
			"type":"VEC3"
		},
		{
			"bufferView":55,
			"componentType":5126,
			"count":730,
			"type":"VEC2"
		},
		{
			"bufferView":56,
			"componentType":5126,
			"count":730,
			"type":"VEC4"
		},
		{
			"bufferView":57,
			"componentType":5123,
			"count":1170,
			"type":"SCALAR"
		},
		{
			"bufferView":58,
			"componentType":5126,
			"count":26166,
			"max":[
				0.5427610874176025,
				0.6360711455345154,
				1.2246559858322144
			],
			"min":[
				-0.08918148279190063,
				0.07453525066375732,
				0.6134031414985657
			],
			"type":"VEC3"
		},
		{
			"bufferView":59,
			"componentType":5126,
			"count":26166,
			"type":"VEC3"
		},
		{
			"bufferView":60,
			"componentType":5126,
			"count":26166,
			"type":"VEC2"
		},
		{
			"bufferView":61,
			"componentType":5126,
			"count":26166,
			"type":"VEC4"
		},
		{
			"bufferView":62,
			"componentType":5123,
			"count":26166,
			"type":"SCALAR"
		},
		{
			"bufferView":63,
			"componentType":5126,
			"count":1984,
			"max":[
				0.4222699999809265,
				0.6107292771339417,
				1.124873399734497
			],
			"min":[
				0.02527734637260437,
				0.11185489594936371,
				0.7278806567192078
			],
			"type":"VEC3"
		},
		{
			"bufferView":64,
			"componentType":5126,
			"count":1984,
			"type":"VEC3"
		},
		{
			"bufferView":65,
			"componentType":5126,
			"count":1984,
			"type":"VEC2"
		},
		{
			"bufferView":66,
			"componentType":5126,
			"count":1984,
			"type":"VEC4"
		},
		{
			"bufferView":67,
			"componentType":5123,
			"count":2880,
			"type":"SCALAR"
		}
	],
	"bufferViews":[
		{
			"buffer":0,
			"byteLength":288,
			"byteOffset":0,
			"target":34962
		},
		{
			"buffer":0,
			"byteLength":288,
			"byteOffset":288,
			"target":34962
		},
		{
			"buffer":0,
			"byteLength":192,
			"byteOffset":576,
			"target":34962
		},
		{
			"buffer":0,
			"byteLength":384,
			"byteOffset":768,
			"target":34962
		},
		{
			"buffer":0,
			"byteLength":72,
			"byteOffset":1152,
			"target":34963
		},
		{
			"buffer":0,
			"byteLength":528,
			"byteOffset":1224,
			"target":34962
		},
		{
			"buffer":0,
			"byteLength":528,
			"byteOffset":1752,
			"target":34962
		},
		{
			"buffer":0,
			"byteLength":352,
			"byteOffset":2280,
			"target":34962
		},
		{
			"buffer":0,
			"byteLength":704,
			"byteOffset":2632,
			"target":34962
		},
		{
			"buffer":0,
			"byteLength":132,
			"byteOffset":3336,
			"target":34963
		},
		{
			"buffer":0,
			"byteLength":528,
			"byteOffset":3468,
			"target":34962
		},
		{
			"buffer":0,
			"byteLength":528,
			"byteOffset":3996,
			"target":34962
		},
		{
			"buffer":0,
			"byteLength":352,
			"byteOffset":4524,
			"target":34962
		},
		{
			"buffer":0,
			"byteLength":704,
			"byteOffset":4876,
			"target":34962
		},
		{
			"buffer":0,
			"byteLength":132,
			"byteOffset":5580,
			"target":34963
		},
		{
			"buffer":0,
			"byteLength":528,
			"byteOffset":5712,
			"target":34962
		},
		{
			"buffer":0,
			"byteLength":528,
			"byteOffset":6240,
			"target":34962
		},
		{
			"buffer":0,
			"byteLength":352,
			"byteOffset":6768,
			"target":34962
		},
		{
			"buffer":0,
			"byteLength":704,
			"byteOffset":7120,
			"target":34962
		},
		{
			"buffer":0,
			"byteLength":132,
			"byteOffset":7824,
			"target":34963
		},
		{
			"buffer":0,
			"byteLength":528,
			"byteOffset":7956,
			"target":34962
		},
		{
			"buffer":0,
			"byteLength":528,
			"byteOffset":8484,
			"target":34962
		},
		{
			"buffer":0,
			"byteLength":352,
			"byteOffset":9012,
			"target":34962
		},
		{
			"buffer":0,
			"byteLength":704,
			"byteOffset":9364,
			"target":34962
		},
		{
			"buffer":0,
			"byteLength":132,
			"byteOffset":10068,
			"target":34963
		},
		{
			"buffer":0,
			"byteLength":82272,
			"byteOffset":10200,
			"target":34962
		},
		{
			"buffer":0,
			"byteLength":82272,
			"byteOffset":92472,
			"target":34962
		},
		{
			"buffer":0,
			"byteLength":54848,
			"byteOffset":174744,
			"target":34962
		},
		{
			"buffer":0,
			"byteLength":109696,
			"byteOffset":229592,
			"target":34962
		},
		{
			"buffer":0,
			"byteLength":74496,
			"byteOffset":339288,
			"target":34963
		},
		{
			"buffer":0,
			"byteLength":1152,
			"byteOffset":413784,
			"target":34962
		},
		{
			"buffer":0,
			"byteLength":1152,
			"byteOffset":414936,
			"target":34962
		},
		{
			"buffer":0,
			"byteLength":768,
			"byteOffset":416088,
			"target":34962
		},
		{
			"buffer":0,
			"byteLength":360,
			"byteOffset":416856,
			"target":34963
		},
		{
			"buffer":0,
			"byteLength":288,
			"byteOffset":417216,
			"target":34962
		},
		{
			"buffer":0,
			"byteLength":288,
			"byteOffset":417504,
			"target":34962
		},
		{
			"buffer":0,
			"byteLength":192,
			"byteOffset":417792,
			"target":34962
		},
		{
			"buffer":0,
			"byteLength":384,
			"byteOffset":417984,
			"target":34962
		},
		{
			"buffer":0,
			"byteLength":9120,
			"byteOffset":418368,
			"target":34962
		},
		{
			"buffer":0,
			"byteLength":9120,
			"byteOffset":427488,
			"target":34962
		},
		{
			"buffer":0,
			"byteLength":6080,
			"byteOffset":436608,
			"target":34962
		},
		{
			"buffer":0,
			"byteLength":12160,
			"byteOffset":442688,
			"target":34962
		},
		{
			"buffer":0,
			"byteLength":2340,
			"byteOffset":454848,
			"target":34963
		},
		{
			"buffer":0,
			"byteLength":8832,
			"byteOffset":457188,
			"target":34962
		},
		{
			"buffer":0,
			"byteLength":8832,
			"byteOffset":466020,
			"target":34962
		},
		{
			"buffer":0,
			"byteLength":5888,
			"byteOffset":474852,
			"target":34962
		},
		{
			"buffer":0,
			"byteLength":11776,
			"byteOffset":480740,
			"target":34962
		},
		{
			"buffer":0,
			"byteLength":2340,
			"byteOffset":492516,
			"target":34963
		},
		{
			"buffer":0,
			"byteLength":8808,
			"byteOffset":494856,
			"target":34962
		},
		{
			"buffer":0,
			"byteLength":8808,
			"byteOffset":503664,
			"target":34962
		},
		{
			"buffer":0,
			"byteLength":5872,
			"byteOffset":512472,
			"target":34962
		},
		{
			"buffer":0,
			"byteLength":11744,
			"byteOffset":518344,
			"target":34962
		},
		{
			"buffer":0,
			"byteLength":2340,
			"byteOffset":530088,
			"target":34963
		},
		{
			"buffer":0,
			"byteLength":8760,
			"byteOffset":532428,
			"target":34962
		},
		{
			"buffer":0,
			"byteLength":8760,
			"byteOffset":541188,
			"target":34962
		},
		{
			"buffer":0,
			"byteLength":5840,
			"byteOffset":549948,
			"target":34962
		},
		{
			"buffer":0,
			"byteLength":11680,
			"byteOffset":555788,
			"target":34962
		},
		{
			"buffer":0,
			"byteLength":2340,
			"byteOffset":567468,
			"target":34963
		},
		{
			"buffer":0,
			"byteLength":313992,
			"byteOffset":569808,
			"target":34962
		},
		{
			"buffer":0,
			"byteLength":313992,
			"byteOffset":883800,
			"target":34962
		},
		{
			"buffer":0,
			"byteLength":209328,
			"byteOffset":1197792,
			"target":34962
		},
		{
			"buffer":0,
			"byteLength":418656,
			"byteOffset":1407120,
			"target":34962
		},
		{
			"buffer":0,
			"byteLength":52332,
			"byteOffset":1825776,
			"target":34963
		},
		{
			"buffer":0,
			"byteLength":23808,
			"byteOffset":1878108,
			"target":34962
		},
		{
			"buffer":0,
			"byteLength":23808,
			"byteOffset":1901916,
			"target":34962
		},
		{
			"buffer":0,
			"byteLength":15872,
			"byteOffset":1925724,
			"target":34962
		},
		{
			"buffer":0,
			"byteLength":31744,
			"byteOffset":1941596,
			"target":34962
		},
		{
			"buffer":0,
			"byteLength":5760,
			"byteOffset":1973340,
			"target":34963
		}
	],
	"samplers":[
		{
			"magFilter":9729,
			"minFilter":9987
		}
	],
	"buffers":[
		{
			"byteLength":1979100,
			"uri":"menu-scene-04d23f29979a5c6a09d0bb9b331a722c.bin"
		}
	]
}
