# Blender 4.2.1 LTS
# www.blender.org
mtllib Hextiles.mtl
o Circle
v 0.400000 0.000000 -0.692820
v -0.400000 0.000000 -0.692820
v -0.800000 0.000000 0.000000
v -0.400000 0.000000 0.692820
v 0.400000 0.000000 0.692820
v 0.800000 0.000000 0.000000
v -0.400000 0.130694 -0.692820
v 0.400000 0.130694 -0.692820
v -0.800000 0.130694 0.000000
v -0.400000 0.130694 0.692820
v 0.400000 0.130694 0.692820
v 0.800000 0.130694 0.000000
vn -0.0000 -1.0000 -0.0000
vn -0.0000 1.0000 -0.0000
vn 0.8660 -0.0000 0.5000
vn -0.8660 -0.0000 0.5000
vn -0.0000 -0.0000 -1.0000
vn 0.8660 -0.0000 -0.5000
vn -0.0000 -0.0000 1.0000
vn -0.8660 -0.0000 -0.5000
vt 0.000000 0.647887
vt 0.000000 0.372212
vt 0.238741 0.234375
vt 0.477482 0.372212
vt 0.477482 0.647887
vt 0.238741 0.785724
vt 0.477482 0.647886
vt 0.477482 0.372212
vt 0.716223 0.234375
vt 0.954964 0.372212
vt 0.954964 0.647887
vt 0.716223 0.785724
vt 1.000000 0.372212
vt 1.000000 0.647887
vt 0.954964 0.647887
vt 0.954964 0.372212
vt 0.724337 0.104614
vt 0.448662 0.107544
vt 0.448662 0.062508
vt 0.724337 0.059578
vt 0.448662 0.017472
vt 0.724337 0.014542
vt 0.999023 0.924396
vt 0.953987 0.924396
vt 1.000976 0.099609
vt 0.955940 0.099609
vt 0.172097 0.062508
vt 0.172097 0.017472
s 0
usemtl Material.001
f 1/1/1 6/2/1 5/3/1 4/4/1 3/5/1 2/6/1
f 8/7/2 7/8/2 9/9/2 10/10/2 11/11/2 12/12/2
f 5/13/3 6/14/3 12/15/3 11/16/3
f 3/17/4 4/18/4 10/19/4 9/20/4
f 1/20/5 2/19/5 7/21/5 8/22/5
f 6/14/6 1/23/6 8/24/6 12/15/6
f 4/25/7 5/13/7 11/16/7 10/26/7
f 2/19/8 3/27/8 9/28/8 7/21/8
