{
	"asset":{
		"generator":"Khronos glTF Blender I/O v4.2.60",
		"version":"2.0"
	},
	"scene":0,
	"scenes":[
		{
			"extras":{
				"NWBusyDrawing":"",
				"NWLazySource":"Principled BSDF",
				"NWLazyTarget":"Principled BSDF",
				"GodotPipelineProps":{
					"global_UI":1,
					"collision_UI":0,
					"path_UI":1,
					"script_param_UI":0,
					"export_UI":1,
					"save_path":"//Models\\menu_scene1\\wood_table.obj.import",
					"path_options":3,
					"set_path":"res://scripts/outline.gdshader"
				}
			},
			"name":"Scene",
			"nodes":[
				0,
				1,
				2,
				3,
				4,
				5,
				6,
				7,
				8,
				9,
				10,
				11
			]
		}
	],
	"nodes":[
		{
			"mesh":0,
			"name":"Cube"
		},
		{
			"mesh":1,
			"name":"Cube.004"
		},
		{
			"mesh":2,
			"name":"Cube.003"
		},
		{
			"mesh":3,
			"name":"Cube.005"
		},
		{
			"mesh":4,
			"name":"Cube.006"
		},
		{
			"mesh":5,
			"name":"Cube.002"
		},
		{
			"mesh":6,
			"name":"Cube.007"
		},
		{
			"mesh":7,
			"name":"Cube.008"
		},
		{
			"mesh":8,
			"name":"Cube.009"
		},
		{
			"mesh":9,
			"name":"skull_ld."
		},
		{
			"mesh":10,
			"name":"Sphere"
		},
		{
			"mesh":11,
			"name":"Candle 1"
		}
	],
	"materials":[
		{
			"doubleSided":true,
			"name":"Wood.001",
			"normalTexture":{
				"index":0
			},
			"pbrMetallicRoughness":{
				"baseColorTexture":{
					"index":1
				},
				"metallicFactor":0,
				"metallicRoughnessTexture":{
					"index":2
				}
			}
		},
		{
			"doubleSided":true,
			"name":"paper.001",
			"pbrMetallicRoughness":{
				"baseColorFactor":[
					0.6368026733398438,
					0.529021143913269,
					0.34159183502197266,
					1
				],
				"metallicFactor":0,
				"roughnessFactor":0.5
			}
		},
		{
			"doubleSided":true,
			"name":"paper.004",
			"pbrMetallicRoughness":{
				"baseColorFactor":[
					0.6368026733398438,
					0.529021143913269,
					0.34159183502197266,
					1
				],
				"metallicFactor":0,
				"roughnessFactor":0.5
			}
		},
		{
			"doubleSided":true,
			"name":"Book-1.001",
			"pbrMetallicRoughness":{
				"baseColorFactor":[
					0.3313713073730469,
					0.0006307955482043326,
					0.0207427479326725,
					1
				],
				"metallicFactor":0
			}
		},
		{
			"doubleSided":true,
			"name":"Book-3.001",
			"pbrMetallicRoughness":{
				"baseColorFactor":[
					0.11898466944694519,
					0.18350782990455627,
					0.11989431083202362,
					1
				],
				"metallicFactor":0
			}
		},
		{
			"doubleSided":true,
			"name":"Book-2.001",
			"pbrMetallicRoughness":{
				"baseColorFactor":[
					0.1802021861076355,
					0.19991010427474976,
					0.4964592456817627,
					1
				],
				"metallicFactor":0
			}
		},
		{
			"doubleSided":true,
			"name":"Book-4.001",
			"pbrMetallicRoughness":{
				"baseColorFactor":[
					0.23329409956932068,
					0.08952222764492035,
					0.10958113521337509,
					1
				],
				"metallicFactor":0
			}
		},
		{
			"doubleSided":true,
			"name":"skull.001",
			"pbrMetallicRoughness":{
				"baseColorTexture":{
					"index":3
				},
				"metallicFactor":0
			}
		},
		{
			"doubleSided":true,
			"name":"Material.002",
			"pbrMetallicRoughness":{
				"baseColorFactor":[
					0,
					0,
					0,
					1
				],
				"metallicFactor":0
			}
		},
		{
			"doubleSided":true,
			"name":"Wick",
			"pbrMetallicRoughness":{
				"baseColorFactor":[
					1,
					0.8298404216766357,
					0.06197631359100342,
					1
				],
				"metallicFactor":0,
				"roughnessFactor":0.8999999761581421
			}
		},
		{
			"doubleSided":true,
			"name":"Candle 1",
			"normalTexture":{
				"index":4
			},
			"pbrMetallicRoughness":{
				"baseColorFactor":[
					0.4019778370857239,
					0.3185468912124634,
					0.14702731370925903,
					1
				],
				"metallicFactor":0,
				"roughnessFactor":0.44999998807907104
			}
		}
	],
	"meshes":[
		{
			"name":"Cube.001",
			"primitives":[
				{
					"attributes":{
						"POSITION":0,
						"NORMAL":1,
						"TEXCOORD_0":2
					},
					"indices":3,
					"material":0
				}
			]
		},
		{
			"name":"Cube.006",
			"primitives":[
				{
					"attributes":{
						"POSITION":4,
						"NORMAL":5,
						"TEXCOORD_0":6
					},
					"indices":7,
					"material":1
				}
			]
		},
		{
			"name":"Cube.008",
			"primitives":[
				{
					"attributes":{
						"POSITION":8,
						"NORMAL":9,
						"TEXCOORD_0":10
					},
					"indices":11,
					"material":1
				}
			]
		},
		{
			"name":"Cube.009",
			"primitives":[
				{
					"attributes":{
						"POSITION":12,
						"NORMAL":13,
						"TEXCOORD_0":14
					},
					"indices":15,
					"material":1
				}
			]
		},
		{
			"name":"Cube.010",
			"primitives":[
				{
					"attributes":{
						"POSITION":16,
						"NORMAL":17,
						"TEXCOORD_0":18
					},
					"indices":19,
					"material":2
				}
			]
		},
		{
			"name":"Cube.003",
			"primitives":[
				{
					"attributes":{
						"POSITION":20,
						"NORMAL":21,
						"TEXCOORD_0":22
					},
					"indices":23,
					"material":3
				}
			]
		},
		{
			"name":"Cube.004",
			"primitives":[
				{
					"attributes":{
						"POSITION":24,
						"NORMAL":25,
						"TEXCOORD_0":26
					},
					"indices":27,
					"material":4
				}
			]
		},
		{
			"name":"Cube.005",
			"primitives":[
				{
					"attributes":{
						"POSITION":28,
						"NORMAL":29,
						"TEXCOORD_0":30
					},
					"indices":31,
					"material":5
				}
			]
		},
		{
			"name":"Cube.007",
			"primitives":[
				{
					"attributes":{
						"POSITION":32,
						"NORMAL":33,
						"TEXCOORD_0":34
					},
					"indices":35,
					"material":6
				}
			]
		},
		{
			"name":"Circle.001",
			"primitives":[
				{
					"attributes":{
						"POSITION":36,
						"NORMAL":37,
						"TEXCOORD_0":38
					},
					"indices":39,
					"material":7
				}
			]
		},
		{
			"name":"Sphere.001",
			"primitives":[
				{
					"attributes":{
						"POSITION":40,
						"NORMAL":41,
						"TEXCOORD_0":42
					},
					"indices":43,
					"material":8
				}
			]
		},
		{
			"name":"Candle 1",
			"primitives":[
				{
					"attributes":{
						"POSITION":44,
						"NORMAL":45,
						"TEXCOORD_0":46
					},
					"indices":47,
					"material":9
				},
				{
					"attributes":{
						"POSITION":48,
						"NORMAL":49,
						"TEXCOORD_0":50
					},
					"indices":51,
					"material":10
				}
			]
		}
	],
	"textures":[
		{
			"sampler":0,
			"source":0
		},
		{
			"sampler":0,
			"source":1
		},
		{
			"sampler":0,
			"source":2
		},
		{
			"sampler":0,
			"source":3
		},
		{
			"sampler":0,
			"source":4
		}
	],
	"images":[
		{
			"mimeType":"image/png",
			"name":"Wood-normal",
			"uri":"Wood-normal.png"
		},
		{
			"mimeType":"image/png",
			"name":"Wood-color",
			"uri":"Wood-color.png"
		},
		{
			"mimeType":"image/png",
			"name":"Wood-color",
			"uri":"Wood-color-1.png"
		},
		{
			"mimeType":"image/png",
			"name":"Skull-color",
			"uri":"Skull-color.png"
		},
		{
			"mimeType":"image/png",
			"name":"Candle 1_Normal",
			"uri":"Candle%201_Normal.png"
		}
	],
	"accessors":[
		{
			"bufferView":0,
			"componentType":5126,
			"count":24,
			"max":[
				1,
				0.09561216831207275,
				2.720189094543457
			],
			"min":[
				-1,
				-0.09561216831207275,
				-2.720189094543457
			],
			"type":"VEC3"
		},
		{
			"bufferView":1,
			"componentType":5126,
			"count":24,
			"type":"VEC3"
		},
		{
			"bufferView":2,
			"componentType":5126,
			"count":24,
			"type":"VEC2"
		},
		{
			"bufferView":3,
			"componentType":5123,
			"count":36,
			"type":"SCALAR"
		},
		{
			"bufferView":4,
			"componentType":5126,
			"count":44,
			"max":[
				0.6464806199073792,
				0.2849735617637634,
				-0.28117257356643677
			],
			"min":[
				-0.20504450798034668,
				0.11643288284540176,
				-0.9691710472106934
			],
			"type":"VEC3"
		},
		{
			"bufferView":5,
			"componentType":5126,
			"count":44,
			"type":"VEC3"
		},
		{
			"bufferView":6,
			"componentType":5126,
			"count":44,
			"type":"VEC2"
		},
		{
			"bufferView":7,
			"componentType":5123,
			"count":66,
			"type":"SCALAR"
		},
		{
			"bufferView":8,
			"componentType":5126,
			"count":44,
			"max":[
				0.646206259727478,
				0.43181100487709045,
				-0.4306221008300781
			],
			"min":[
				-0.0474584698677063,
				0.32723498344421387,
				-1.006914734840393
			],
			"type":"VEC3"
		},
		{
			"bufferView":9,
			"componentType":5126,
			"count":44,
			"type":"VEC3"
		},
		{
			"bufferView":10,
			"componentType":5126,
			"count":44,
			"type":"VEC2"
		},
		{
			"bufferView":11,
			"componentType":5123,
			"count":66,
			"type":"SCALAR"
		},
		{
			"bufferView":12,
			"componentType":5126,
			"count":44,
			"max":[
				0.8499071598052979,
				0.3079088628292084,
				-1.3784141540527344
			],
			"min":[
				-0.3041757047176361,
				0.10033642500638962,
				-2.473569393157959
			],
			"type":"VEC3"
		},
		{
			"bufferView":13,
			"componentType":5126,
			"count":44,
			"type":"VEC3"
		},
		{
			"bufferView":14,
			"componentType":5126,
			"count":44,
			"type":"VEC2"
		},
		{
			"bufferView":15,
			"componentType":5123,
			"count":66,
			"type":"SCALAR"
		},
		{
			"bufferView":16,
			"componentType":5126,
			"count":44,
			"max":[
				0.20152932405471802,
				0.4738972783088684,
				0.11925391852855682
			],
			"min":[
				-0.5041333436965942,
				0.09950466454029083,
				-0.6032062768936157
			],
			"type":"VEC3"
		},
		{
			"bufferView":17,
			"componentType":5126,
			"count":44,
			"type":"VEC3"
		},
		{
			"bufferView":18,
			"componentType":5126,
			"count":44,
			"type":"VEC2"
		},
		{
			"bufferView":19,
			"componentType":5123,
			"count":66,
			"type":"SCALAR"
		},
		{
			"bufferView":20,
			"componentType":5126,
			"count":760,
			"max":[
				0.21701177954673767,
				0.48899322748184204,
				0.1360793262720108
			],
			"min":[
				-0.5372819900512695,
				0.0828646719455719,
				-0.6322365999221802
			],
			"type":"VEC3"
		},
		{
			"bufferView":21,
			"componentType":5126,
			"count":760,
			"type":"VEC3"
		},
		{
			"bufferView":22,
			"componentType":5126,
			"count":760,
			"type":"VEC2"
		},
		{
			"bufferView":23,
			"componentType":5123,
			"count":1170,
			"type":"SCALAR"
		},
		{
			"bufferView":24,
			"componentType":5126,
			"count":736,
			"max":[
				0.6705494523048401,
				0.44675320386886597,
				-0.40978944301605225
			],
			"min":[
				-0.06923225522041321,
				0.31229281425476074,
				-1.037732720375061
			],
			"type":"VEC3"
		},
		{
			"bufferView":25,
			"componentType":5126,
			"count":736,
			"type":"VEC3"
		},
		{
			"bufferView":26,
			"componentType":5126,
			"count":736,
			"type":"VEC2"
		},
		{
			"bufferView":27,
			"componentType":5123,
			"count":1170,
			"type":"SCALAR"
		},
		{
			"bufferView":28,
			"componentType":5126,
			"count":734,
			"max":[
				0.6672532558441162,
				0.30905526876449585,
				-0.25757575035095215
			],
			"min":[
				-0.24172374606132507,
				0.09235122054815292,
				-1.0022704601287842
			],
			"type":"VEC3"
		},
		{
			"bufferView":29,
			"componentType":5126,
			"count":734,
			"type":"VEC3"
		},
		{
			"bufferView":30,
			"componentType":5126,
			"count":734,
			"type":"VEC2"
		},
		{
			"bufferView":31,
			"componentType":5123,
			"count":1170,
			"type":"SCALAR"
		},
		{
			"bufferView":32,
			"componentType":5126,
			"count":730,
			"max":[
				0.8963191509246826,
				0.3375675678253174,
				-1.342294454574585
			],
			"min":[
				-0.338583379983902,
				0.07067777216434479,
				-2.5308303833007812
			],
			"type":"VEC3"
		},
		{
			"bufferView":33,
			"componentType":5126,
			"count":730,
			"type":"VEC3"
		},
		{
			"bufferView":34,
			"componentType":5126,
			"count":730,
			"type":"VEC2"
		},
		{
			"bufferView":35,
			"componentType":5123,
			"count":1170,
			"type":"SCALAR"
		},
		{
			"bufferView":36,
			"componentType":5126,
			"count":4554,
			"max":[
				0.3332023024559021,
				0.6360711455345154,
				1.2246559858322144
			],
			"min":[
				-0.2987402677536011,
				0.07453525066375732,
				0.6134031414985657
			],
			"type":"VEC3"
		},
		{
			"bufferView":37,
			"componentType":5126,
			"count":4554,
			"type":"VEC3"
		},
		{
			"bufferView":38,
			"componentType":5126,
			"count":4554,
			"type":"VEC2"
		},
		{
			"bufferView":39,
			"componentType":5123,
			"count":26166,
			"type":"SCALAR"
		},
		{
			"bufferView":40,
			"componentType":5126,
			"count":1984,
			"max":[
				0.21271122992038727,
				0.6107292771339417,
				1.124873399734497
			],
			"min":[
				-0.18428142368793488,
				0.11185489594936371,
				0.7278806567192078
			],
			"type":"VEC3"
		},
		{
			"bufferView":41,
			"componentType":5126,
			"count":1984,
			"type":"VEC3"
		},
		{
			"bufferView":42,
			"componentType":5126,
			"count":1984,
			"type":"VEC2"
		},
		{
			"bufferView":43,
			"componentType":5123,
			"count":2880,
			"type":"SCALAR"
		},
		{
			"bufferView":44,
			"componentType":5126,
			"count":47,
			"max":[
				0.3685893416404724,
				0.5021714568138123,
				1.3459826707839966
			],
			"min":[
				0.3560123145580292,
				0.420891135931015,
				1.3262733221054077
			],
			"type":"VEC3"
		},
		{
			"bufferView":45,
			"componentType":5126,
			"count":47,
			"type":"VEC3"
		},
		{
			"bufferView":46,
			"componentType":5126,
			"count":47,
			"type":"VEC2"
		},
		{
			"bufferView":47,
			"componentType":5123,
			"count":150,
			"type":"SCALAR"
		},
		{
			"bufferView":48,
			"componentType":5126,
			"count":1628,
			"max":[
				0.5889594554901123,
				0.5269726514816284,
				1.5849812030792236
			],
			"min":[
				0.13181646168231964,
				0.08932781219482422,
				1.121852159500122
			],
			"type":"VEC3"
		},
		{
			"bufferView":49,
			"componentType":5126,
			"count":1628,
			"type":"VEC3"
		},
		{
			"bufferView":50,
			"componentType":5126,
			"count":1628,
			"type":"VEC2"
		},
		{
			"bufferView":51,
			"componentType":5123,
			"count":2490,
			"type":"SCALAR"
		}
	],
	"bufferViews":[
		{
			"buffer":0,
			"byteLength":288,
			"byteOffset":0,
			"target":34962
		},
		{
			"buffer":0,
			"byteLength":288,
			"byteOffset":288,
			"target":34962
		},
		{
			"buffer":0,
			"byteLength":192,
			"byteOffset":576,
			"target":34962
		},
		{
			"buffer":0,
			"byteLength":72,
			"byteOffset":768,
			"target":34963
		},
		{
			"buffer":0,
			"byteLength":528,
			"byteOffset":840,
			"target":34962
		},
		{
			"buffer":0,
			"byteLength":528,
			"byteOffset":1368,
			"target":34962
		},
		{
			"buffer":0,
			"byteLength":352,
			"byteOffset":1896,
			"target":34962
		},
		{
			"buffer":0,
			"byteLength":132,
			"byteOffset":2248,
			"target":34963
		},
		{
			"buffer":0,
			"byteLength":528,
			"byteOffset":2380,
			"target":34962
		},
		{
			"buffer":0,
			"byteLength":528,
			"byteOffset":2908,
			"target":34962
		},
		{
			"buffer":0,
			"byteLength":352,
			"byteOffset":3436,
			"target":34962
		},
		{
			"buffer":0,
			"byteLength":132,
			"byteOffset":3788,
			"target":34963
		},
		{
			"buffer":0,
			"byteLength":528,
			"byteOffset":3920,
			"target":34962
		},
		{
			"buffer":0,
			"byteLength":528,
			"byteOffset":4448,
			"target":34962
		},
		{
			"buffer":0,
			"byteLength":352,
			"byteOffset":4976,
			"target":34962
		},
		{
			"buffer":0,
			"byteLength":132,
			"byteOffset":5328,
			"target":34963
		},
		{
			"buffer":0,
			"byteLength":528,
			"byteOffset":5460,
			"target":34962
		},
		{
			"buffer":0,
			"byteLength":528,
			"byteOffset":5988,
			"target":34962
		},
		{
			"buffer":0,
			"byteLength":352,
			"byteOffset":6516,
			"target":34962
		},
		{
			"buffer":0,
			"byteLength":132,
			"byteOffset":6868,
			"target":34963
		},
		{
			"buffer":0,
			"byteLength":9120,
			"byteOffset":7000,
			"target":34962
		},
		{
			"buffer":0,
			"byteLength":9120,
			"byteOffset":16120,
			"target":34962
		},
		{
			"buffer":0,
			"byteLength":6080,
			"byteOffset":25240,
			"target":34962
		},
		{
			"buffer":0,
			"byteLength":2340,
			"byteOffset":31320,
			"target":34963
		},
		{
			"buffer":0,
			"byteLength":8832,
			"byteOffset":33660,
			"target":34962
		},
		{
			"buffer":0,
			"byteLength":8832,
			"byteOffset":42492,
			"target":34962
		},
		{
			"buffer":0,
			"byteLength":5888,
			"byteOffset":51324,
			"target":34962
		},
		{
			"buffer":0,
			"byteLength":2340,
			"byteOffset":57212,
			"target":34963
		},
		{
			"buffer":0,
			"byteLength":8808,
			"byteOffset":59552,
			"target":34962
		},
		{
			"buffer":0,
			"byteLength":8808,
			"byteOffset":68360,
			"target":34962
		},
		{
			"buffer":0,
			"byteLength":5872,
			"byteOffset":77168,
			"target":34962
		},
		{
			"buffer":0,
			"byteLength":2340,
			"byteOffset":83040,
			"target":34963
		},
		{
			"buffer":0,
			"byteLength":8760,
			"byteOffset":85380,
			"target":34962
		},
		{
			"buffer":0,
			"byteLength":8760,
			"byteOffset":94140,
			"target":34962
		},
		{
			"buffer":0,
			"byteLength":5840,
			"byteOffset":102900,
			"target":34962
		},
		{
			"buffer":0,
			"byteLength":2340,
			"byteOffset":108740,
			"target":34963
		},
		{
			"buffer":0,
			"byteLength":54648,
			"byteOffset":111080,
			"target":34962
		},
		{
			"buffer":0,
			"byteLength":54648,
			"byteOffset":165728,
			"target":34962
		},
		{
			"buffer":0,
			"byteLength":36432,
			"byteOffset":220376,
			"target":34962
		},
		{
			"buffer":0,
			"byteLength":52332,
			"byteOffset":256808,
			"target":34963
		},
		{
			"buffer":0,
			"byteLength":23808,
			"byteOffset":309140,
			"target":34962
		},
		{
			"buffer":0,
			"byteLength":23808,
			"byteOffset":332948,
			"target":34962
		},
		{
			"buffer":0,
			"byteLength":15872,
			"byteOffset":356756,
			"target":34962
		},
		{
			"buffer":0,
			"byteLength":5760,
			"byteOffset":372628,
			"target":34963
		},
		{
			"buffer":0,
			"byteLength":564,
			"byteOffset":378388,
			"target":34962
		},
		{
			"buffer":0,
			"byteLength":564,
			"byteOffset":378952,
			"target":34962
		},
		{
			"buffer":0,
			"byteLength":376,
			"byteOffset":379516,
			"target":34962
		},
		{
			"buffer":0,
			"byteLength":300,
			"byteOffset":379892,
			"target":34963
		},
		{
			"buffer":0,
			"byteLength":19536,
			"byteOffset":380192,
			"target":34962
		},
		{
			"buffer":0,
			"byteLength":19536,
			"byteOffset":399728,
			"target":34962
		},
		{
			"buffer":0,
			"byteLength":13024,
			"byteOffset":419264,
			"target":34962
		},
		{
			"buffer":0,
			"byteLength":4980,
			"byteOffset":432288,
			"target":34963
		}
	],
	"samplers":[
		{
			"magFilter":9729,
			"minFilter":9987
		}
	],
	"buffers":[
		{
			"byteLength":437268,
			"uri":"wood_table.obj.import.bin"
		}
	]
}
